# xmcd CD database file
#
# Track frame offsets:
#	180
#	20934
#	44250
#	64657
#	84232
#	104052
#	122814
#	138306
#	157267
#	177664
#	198143
#	216493
#	234177
#	252395
#	269479
#	287581
#	305752
#	326051
#
# Disc length: 4589 seconds
#
# Revision: 0
# Processed by: cddbd v1.5.1PL0 Copyright (c) Steve Scherf et al.
# Submitted via: CDex 1.51
#
DISCID=1a11eb12
DTITLE=Various Artist - Zouk - Maxi Zouk - CD 1
DYEAR=1996
DGENRE=Zouk Love
TTITLE0=JEAN-PAUL POGNON - Krysti
TTITLE1=KWAK - Kontinue
TTITLE2=FRANKY VINCENT - Positif
TTITLE3=HARRY DIBOULA - Tu Me Manques
TTITLE4=SHANGO GANG - Ou Ke Vini
TTITLE5=RALPH THAMAR - Justin
TTITLE6=CORINNE D - Bineo
TTITLE7=TRIO BAD - Rhum
TTITLE8=TATIANA MIATH
TTITLE9=C VAMUR - MJ GIBON - Colozou
TTITLE10=ALAIN MARLIN - Taksi
TTITLE11=OBAD - Fanm
TTITLE12=ANSANM - Lanmou
TTITLE13=CHRIS COMBETTE - Bakouelele
TTITLE14=CLAUDIA SIAR - Generation Consciente
TTITLE15=STAND BY - Obje Plezi
TTITLE16=MAURICE FLERET - Only You
TTITLE17=PIPO - La Sev Mwen
EXTD=YEAR: 1996
EXTT0=
EXTT1=
EXTT2=
EXTT3=
EXTT4=
EXTT5=
EXTT6=
EXTT7=
EXTT8=
EXTT9=
EXTT10=
EXTT11=
EXTT12=
EXTT13=
EXTT14=
EXTT15=
EXTT16=
EXTT17=
PLAYORDER=
